<svg width="280" height="280" viewBox="0 0 280 280" fill="none" xmlns="http://www.w3.org/2000/svg">
<path fill-rule="evenodd" clip-rule="evenodd" d="M9.62716 0H0V9.33365C5.1546 9.33372 9.3332 13.5124 9.3332 18.667C9.3332 23.8216 5.1546 28.0003 0 28.0003V39.667C5.1546 39.6671 9.3332 43.8457 9.3332 49.0003C9.3332 54.1549 5.1546 58.3336 0 58.3337V70.0003C5.1546 70.0004 9.3332 74.179 9.3332 79.3336C9.3332 84.4883 5.1546 88.6669 0 88.667V100.334C5.1546 100.334 9.3332 104.512 9.3332 109.667C9.3332 114.822 5.1546 119 0 119V130.667C5.1546 130.667 9.3332 134.846 9.3332 140C9.3332 145.155 5.1546 149.334 0 149.334V161C5.1546 161 9.3332 165.179 9.3332 170.334C9.3332 175.488 5.1546 179.667 0 179.667V191.334C5.1546 191.334 9.3332 195.512 9.3332 200.667C9.3332 205.822 5.1546 210 0 210V221.667C5.1546 221.667 9.3332 225.846 9.3332 231C9.3332 236.155 5.1546 240.334 0 240.334V252C5.1546 252 9.3332 256.179 9.3332 261.334C9.3332 266.488 5.1546 270.667 0 270.667V280H9.3332C9.33337 274.845 13.512 270.667 18.6665 270.667C23.8211 270.667 27.9997 274.845 27.9999 280H39.6665C39.6667 274.845 43.8453 270.667 48.9999 270.667C54.1544 270.667 58.333 274.845 58.3332 280H69.9999C70 274.845 74.1786 270.667 79.3332 270.667C84.4878 270.667 88.6664 274.845 88.6665 280H100.333C100.333 274.845 104.512 270.667 109.667 270.667C114.821 270.667 119 274.845 119 280H130.667C130.667 274.845 134.845 270.667 140 270.667C145.154 270.667 149.333 274.845 149.333 280H161C161 274.845 165.179 270.667 170.333 270.667C175.488 270.667 179.666 274.845 179.667 280H191.333C191.333 274.845 195.512 270.667 200.667 270.667C205.821 270.667 210 274.845 210 280H221.667C221.667 274.845 225.845 270.667 231 270.667C236.154 270.667 240.333 274.845 240.333 280H252C252 274.845 256.179 270.667 261.333 270.667C266.488 270.667 270.666 274.845 270.667 280H280L280 270.667C274.845 270.667 270.667 266.488 270.667 261.334C270.667 256.179 274.845 252 280 252V240.334C274.845 240.334 270.667 236.155 270.667 231C270.667 225.846 274.845 221.667 280 221.667V210C274.845 210 270.667 205.822 270.667 200.667C270.667 195.512 274.845 191.334 280 191.334V179.667C274.845 179.667 270.667 175.488 270.667 170.334C270.667 165.179 274.845 161 280 161V149.334C274.845 149.334 270.667 145.155 270.667 140C270.667 134.846 274.845 130.667 280 130.667V119C274.845 119 270.667 114.822 270.667 109.667C270.667 104.512 274.845 100.334 280 100.334V88.667C274.845 88.667 270.667 84.4883 270.667 79.3336C270.667 74.179 274.845 70.0003 280 70.0003V58.3337C274.845 58.3337 270.667 54.155 270.667 49.0003C270.667 43.8457 274.845 39.667 280 39.667V28.0003C274.845 28.0003 270.667 23.8216 270.667 18.667C270.667 13.5123 274.845 9.33365 280 9.33365L280 0H270.373C269.337 4.02569 265.682 7.00032 261.333 7.00032C256.984 7.00032 253.33 4.02569 252.294 0H240.039C239.003 4.02569 235.349 7.00032 231 7.00032C226.651 7.00032 222.996 4.02569 221.96 0H209.706C208.67 4.02569 205.016 7.00032 200.667 7.00032C196.317 7.00032 192.663 4.02569 191.627 0H179.373C178.337 4.02569 174.682 7.00032 170.333 7.00032C165.984 7.00032 162.33 4.02569 161.294 0H149.039C148.003 4.02569 144.349 7.00032 140 7.00032C135.651 7.00032 131.996 4.02569 130.96 0H118.706C117.67 4.02569 114.016 7.00032 109.667 7.00032C105.317 7.00032 101.663 4.02569 100.627 0H88.3726C87.3366 4.02569 83.6823 7.00032 79.3332 7.00032C74.9841 7.00032 71.3298 4.02569 70.2938 0H58.0392C57.0033 4.02569 53.3489 7.00032 48.9999 7.00032C44.6508 7.00032 40.9965 4.02569 39.9605 0H27.7059C26.6699 4.02569 23.0156 7.00032 18.6665 7.00032C14.3175 7.00032 10.6632 4.02569 9.62716 0Z" fill="white"/>
</svg>
