<svg width="68" height="37" viewBox="0 0 68 37" fill="none" xmlns="http://www.w3.org/2000/svg">
<path d="M66.5429 12.3335C67.3151 12.0337 67.6981 11.1646 67.3983 10.3923C67.0985 9.62004 66.2294 9.23705 65.4571 9.53687L66.5429 12.3335ZM10.5 2.0064L10.4756 3.5062L10.5 2.0064ZM-23 10.9352C-22.2544 12.2367 -22.2546 12.2369 -22.2548 12.237C-22.2548 12.237 -22.2549 12.237 -22.2549 12.237C-22.2548 12.237 -22.2544 12.2368 -22.2539 12.2365C-22.2527 12.2358 -22.2506 12.2346 -22.2476 12.2329C-22.2414 12.2294 -22.2315 12.2237 -22.2177 12.216C-22.1901 12.2005 -22.1474 12.1766 -22.0899 12.1448C-21.975 12.0813 -21.8011 11.9865 -21.572 11.865C-21.1137 11.6218 -20.4345 11.2717 -19.5631 10.851C-17.8196 10.0093 -15.3113 8.88708 -12.267 7.77322C-6.16231 5.53958 2.01907 3.36867 10.4756 3.5062L10.5244 0.506602C1.56114 0.360827 -7.00749 2.65431 -13.2978 4.95589C-16.4511 6.10964 -19.0515 7.27273 -20.8674 8.14941C-21.7758 8.58794 -22.489 8.95535 -22.9781 9.21486C-23.2226 9.34463 -23.4113 9.44747 -23.5404 9.51878C-23.605 9.55444 -23.6546 9.58222 -23.689 9.60155C-23.7062 9.61122 -23.7195 9.61877 -23.729 9.62415C-23.7337 9.62683 -23.7375 9.62897 -23.7402 9.63056C-23.7416 9.63135 -23.7428 9.632 -23.7437 9.63252C-23.7441 9.63277 -23.7446 9.63305 -23.7448 9.63318C-23.7453 9.63343 -23.7456 9.63364 -23 10.9352ZM10.4756 3.5062C14.4574 3.57096 18.6425 4.58316 23.0624 6.00907C25.2673 6.72038 27.5068 7.52641 29.7956 8.35775C32.0768 9.1863 34.4092 10.0408 36.7638 10.8339C46.1554 13.997 56.2697 16.322 66.5429 12.3335L65.4571 9.53687C56.2303 13.1191 47.0014 11.1164 37.7214 7.9908C35.4081 7.21167 33.1146 6.37147 30.8198 5.53799C28.5327 4.70729 26.2464 3.88399 23.9835 3.15396C19.4678 1.69716 14.9494 0.578568 10.5244 0.506602L10.4756 3.5062Z" fill="#93B9CA" fill-opacity="0.5"/>
<path d="M66.5429 23.2798C67.3151 22.98 67.6981 22.1109 67.3983 21.3386C67.0985 20.5663 66.2294 20.1833 65.4571 20.4832L66.5429 23.2798ZM10.5 12.9527L10.4756 14.4525L10.5 12.9527ZM-23 21.8815C-22.2544 23.183 -22.2546 23.1832 -22.2548 23.1833C-22.2548 23.1833 -22.2549 23.1833 -22.2549 23.1833C-22.2548 23.1833 -22.2544 23.1831 -22.2539 23.1827C-22.2527 23.1821 -22.2506 23.1809 -22.2476 23.1792C-22.2414 23.1757 -22.2315 23.17 -22.2177 23.1623C-22.1901 23.1468 -22.1474 23.1228 -22.0899 23.0911C-21.975 23.0276 -21.8011 22.9328 -21.572 22.8112C-21.1137 22.5681 -20.4345 22.218 -19.5631 21.7973C-17.8196 20.9556 -15.3113 19.8334 -12.267 18.7195C-6.16231 16.4859 2.01907 14.315 10.4756 14.4525L10.5244 11.4529C1.56114 11.3071 -7.00749 13.6006 -13.2978 15.9022C-16.4511 17.0559 -19.0515 18.219 -20.8674 19.0957C-21.7758 19.5342 -22.489 19.9016 -22.9781 20.1611C-23.2226 20.2909 -23.4113 20.3938 -23.5404 20.4651C-23.605 20.5007 -23.6546 20.5285 -23.689 20.5478C-23.7062 20.5575 -23.7195 20.5651 -23.729 20.5704C-23.7337 20.5731 -23.7375 20.5753 -23.7402 20.5768C-23.7416 20.5776 -23.7428 20.5783 -23.7437 20.5788C-23.7441 20.5791 -23.7446 20.5793 -23.7448 20.5795C-23.7453 20.5797 -23.7456 20.5799 -23 21.8815ZM10.4756 14.4525C14.4574 14.5173 18.6425 15.5295 23.0624 16.9554C25.2673 17.6667 27.5068 18.4727 29.7956 19.304C32.0768 20.1326 34.4092 20.9871 36.7638 21.7802C46.1554 24.9433 56.2697 27.2683 66.5429 23.2798L65.4571 20.4832C56.2303 24.0654 47.0014 22.0627 37.7214 18.9371C35.4081 18.158 33.1146 17.3178 30.8198 16.4843C28.5327 15.6536 26.2464 14.8303 23.9835 14.1003C19.4678 12.6435 14.9494 11.5249 10.5244 11.4529L10.4756 14.4525Z" fill="#93B9CA" fill-opacity="0.5"/>
<path d="M66.5429 34.2251C67.3151 33.9253 67.6981 33.0562 67.3983 32.2839C67.0985 31.5116 66.2294 31.1286 65.4571 31.4285L66.5429 34.2251ZM10.5 23.898L10.4756 25.3978L10.5 23.898ZM-23 32.8268C-22.2544 34.1283 -22.2546 34.1285 -22.2548 34.1286C-22.2548 34.1286 -22.2549 34.1286 -22.2549 34.1286C-22.2548 34.1286 -22.2544 34.1284 -22.2539 34.1281C-22.2527 34.1274 -22.2506 34.1262 -22.2476 34.1245C-22.2414 34.121 -22.2315 34.1153 -22.2177 34.1076C-22.1901 34.0921 -22.1474 34.0682 -22.0899 34.0364C-21.975 33.9729 -21.8011 33.8781 -21.572 33.7566C-21.1137 33.5134 -20.4345 33.1633 -19.5631 32.7426C-17.8196 31.9009 -15.3113 30.7787 -12.267 29.6648C-6.16231 27.4312 2.01907 25.2603 10.4756 25.3978L10.5244 22.3982C1.56114 22.2524 -7.00749 24.5459 -13.2978 26.8475C-16.4511 28.0012 -19.0515 29.1643 -20.8674 30.041C-21.7758 30.4795 -22.489 30.847 -22.9781 31.1065C-23.2226 31.2362 -23.4113 31.3391 -23.5404 31.4104C-23.605 31.446 -23.6546 31.4738 -23.689 31.4932C-23.7062 31.5028 -23.7195 31.5104 -23.729 31.5157C-23.7337 31.5184 -23.7375 31.5206 -23.7402 31.5222C-23.7416 31.5229 -23.7428 31.5236 -23.7437 31.5241C-23.7441 31.5244 -23.7446 31.5247 -23.7448 31.5248C-23.7453 31.525 -23.7456 31.5252 -23 32.8268ZM10.4756 25.3978C14.4574 25.4626 18.6425 26.4748 23.0624 27.9007C25.2673 28.612 27.5068 29.418 29.7956 30.2494C32.0768 31.0779 34.4092 31.9324 36.7638 32.7255C46.1554 35.8886 56.2697 38.2136 66.5429 34.2251L65.4571 31.4285C56.2303 35.0107 47.0014 33.008 37.7214 29.8824C35.4081 29.1033 33.1146 28.2631 30.8198 27.4296C28.5327 26.5989 26.2464 25.7756 23.9835 25.0456C19.4678 23.5888 14.9494 22.4702 10.5244 22.3982L10.4756 25.3978Z" fill="#93B9CA" fill-opacity="0.5"/>
</svg>
