<svg width="84" height="80" viewBox="0 0 84 80" fill="none" xmlns="http://www.w3.org/2000/svg">
<g clip-path="url(#clip0_360_4783)">
<path d="M74 47.2558C74 64.9289 44.8 76.9684 42 79.7684C38.4 76.9684 10 64.9289 10 47.2558C10 29.5826 27.2 18.168 42 30.4557C56 18.9682 74 29.5826 74 47.2558Z" fill="url(#paint0_linear_360_4783)"/>
<path d="M41.0947 13.259C45.4899 5.80829 55.6103 5.54001 57 4.76855C57.1951 6.47488 61.4896 13.9214 57.0944 21.3722C52.6992 28.8229 47.1432 27.7355 42.0054 30.0083C41.7539 27.8691 36.6995 20.7098 41.0947 13.259Z" fill="#C7FFBF"/>
<path d="M43.2041 20.62C40.3132 15.2895 33.9403 14.2464 33.0519 13.6352C32.9567 14.7798 30.3621 19.7761 33.253 25.1066C36.1438 30.4372 39.6275 30.0522 42.9023 31.9189C43.026 30.4844 46.0949 25.9506 43.2041 20.62Z" fill="#B2F1AA"/>
</g>
<defs>
<linearGradient id="paint0_linear_360_4783" x1="42" y1="25.3201" x2="42" y2="79.2557" gradientUnits="userSpaceOnUse">
<stop stop-color="#FFDADF"/>
<stop offset="1" stop-color="#FFB3BC"/>
</linearGradient>
<clipPath id="clip0_360_4783">
<rect width="84" height="79.7684" fill="white"/>
</clipPath>
</defs>
</svg>
