<svg width="360" height="414" viewBox="0 0 360 414" fill="none" xmlns="http://www.w3.org/2000/svg">
<path fill-rule="evenodd" clip-rule="evenodd" d="M72.9495 284.942C10.8507 225.819 8.43809 127.55 67.5607 65.4509C126.683 3.35215 224.952 0.939564 287.052 60.0622C349.15 119.185 351.563 217.453 292.441 279.553L185.389 391.992L72.9495 284.942ZM267.454 255.764L184.192 343.216L96.7384 259.956C48.4395 213.97 46.563 137.539 92.5474 89.2398C138.532 40.9409 214.962 39.0644 263.262 85.0488C311.561 131.033 313.437 207.464 267.454 255.764Z" fill="#FF0C92"/>
<path d="M267.454 255.764L184.192 343.216L96.7384 259.956C48.4395 213.97 46.563 137.539 92.5474 89.2398C138.532 40.9409 214.962 39.0644 263.262 85.0488C311.561 131.033 313.437 207.464 267.454 255.764Z" fill="white"/>
<path fill-rule="evenodd" clip-rule="evenodd" d="M72.9495 284.942C10.8507 225.819 8.43809 127.55 67.5607 65.4509C126.683 3.35215 224.952 0.939564 287.052 60.0622C349.15 119.185 351.563 217.453 292.441 279.553L185.389 391.992L72.9495 284.942ZM267.454 255.764L184.192 343.216L96.7384 259.956C48.4395 213.97 46.563 137.539 92.5474 89.2398C138.532 40.9409 214.962 39.0644 263.262 85.0488C311.561 131.033 313.437 207.464 267.454 255.764Z" stroke="#FF0C92"/>
<path d="M267.454 255.764L184.192 343.216L96.7384 259.956C48.4395 213.97 46.563 137.539 92.5474 89.2398C138.532 40.9409 214.962 39.0644 263.262 85.0488C311.561 131.033 313.437 207.464 267.454 255.764Z" stroke="#FF0C92"/>
<g clip-path="url(#clip0_365_4432)">
<path d="M258.528 183.167C258.528 226.537 186.872 256.081 180 262.953C171.166 256.081 101.473 226.537 101.473 183.167C101.473 139.797 143.681 111.786 180 141.94C214.356 113.75 258.528 139.797 258.528 183.167Z" fill="url(#paint0_linear_365_4432)"/>
<path d="M177.777 99.7375C188.563 81.4534 213.398 80.7951 216.808 78.9019C217.287 83.0892 227.826 101.363 217.04 119.647C206.254 137.931 192.62 135.263 180.012 140.84C179.395 135.59 166.991 118.022 177.777 99.7375Z" fill="#C7FFBF"/>
<path d="M182.957 117.801C175.863 104.72 160.224 102.16 158.044 100.66C157.811 103.469 151.443 115.73 158.538 128.811C165.632 141.892 174.181 140.947 182.217 145.528C182.52 142.008 190.052 130.882 182.957 117.801Z" fill="#B2F1AA"/>
</g>
<defs>
<linearGradient id="paint0_linear_365_4432" x1="180" y1="129.337" x2="180" y2="261.695" gradientUnits="userSpaceOnUse">
<stop stop-color="#FFDADF"/>
<stop offset="1" stop-color="#FFB3BC"/>
</linearGradient>
<clipPath id="clip0_365_4432">
<rect width="188.658" height="188.658" fill="white" transform="translate(85.6709 70.7471)"/>
</clipPath>
</defs>
</svg>
