<svg width="61" height="72" viewBox="0 0 61 72" fill="none" xmlns="http://www.w3.org/2000/svg">
<path fill-rule="evenodd" clip-rule="evenodd" d="M10.0725 51.3729C-1.77729 40.0911 -2.23766 21.3391 9.0442 9.48935C20.3261 -2.36041 39.0778 -2.82079 50.9278 8.46106C62.7774 19.7429 63.2379 38.4946 51.9561 50.3446L31.5283 71.8004L10.0725 51.3729ZM47.1881 45.8051L31.2999 62.4928L14.6119 46.605C5.39545 37.83 5.03739 23.2453 13.8122 14.0288C22.5869 4.81231 37.1716 4.45425 46.3882 13.229C55.6046 22.0038 55.9627 36.5884 47.1881 45.8051Z" fill="#6D6D6D"/>
<path d="M47.1881 45.8051L31.2999 62.4928L14.6119 46.605C5.39545 37.83 5.03739 23.2453 13.8122 14.0288C22.5869 4.81231 37.1716 4.45425 46.3882 13.229C55.6046 22.0038 55.9627 36.5884 47.1881 45.8051Z" fill="white"/>
<path fill-rule="evenodd" clip-rule="evenodd" d="M10.0725 51.3729C-1.77729 40.0911 -2.23766 21.3391 9.0442 9.48935C20.3261 -2.36041 39.0778 -2.82079 50.9278 8.46106C62.7774 19.7429 63.2379 38.4946 51.9561 50.3446L31.5283 71.8004L10.0725 51.3729ZM47.1881 45.8051L31.2999 62.4928L14.6119 46.605C5.39545 37.83 5.03739 23.2453 13.8122 14.0288C22.5869 4.81231 37.1716 4.45425 46.3882 13.229C55.6046 22.0038 55.9627 36.5884 47.1881 45.8051Z" stroke="#6D6D6D"/>
<path d="M47.1881 45.8051L31.2999 62.4928L14.6119 46.605C5.39545 37.83 5.03739 23.2453 13.8122 14.0288C22.5869 4.81231 37.1716 4.45425 46.3882 13.229C55.6046 22.0038 55.9627 36.5884 47.1881 45.8051Z" stroke="#6D6D6D"/>
<g clip-path="url(#clip0_586_4482)">
<path d="M45.9851 32.4518C45.9851 40.7277 32.3115 46.3655 31.0004 47.6766C29.3146 46.3655 16.0156 40.7277 16.0156 32.4518C16.0156 24.176 24.0699 18.8308 31.0004 24.5848C37.5562 19.2055 45.9851 24.176 45.9851 32.4518Z" fill="url(#paint0_linear_586_4482)"/>
<path d="M30.5761 16.5321C32.6343 13.0431 37.3734 12.9175 38.0242 12.5562C38.1155 13.3553 40.1265 16.8423 38.0684 20.3313C36.0102 23.8203 33.4085 23.3111 31.0026 24.3753C30.8848 23.3736 28.518 20.0211 30.5761 16.5321Z" fill="#C7FFBF"/>
<path d="M31.5646 19.979C30.2109 17.4829 27.2266 16.9944 26.8107 16.7082C26.7661 17.2442 25.5511 19.5838 26.9048 22.08C28.2585 24.5762 29.8898 24.3959 31.4233 25.27C31.4813 24.5983 32.9183 22.4752 31.5646 19.979Z" fill="#B2F1AA"/>
</g>
<defs>
<linearGradient id="paint0_linear_586_4482" x1="31.0004" y1="22.1799" x2="31.0004" y2="47.4366" gradientUnits="userSpaceOnUse">
<stop stop-color="#FFDADF"/>
<stop offset="1" stop-color="#FFB3BC"/>
</linearGradient>
<clipPath id="clip0_586_4482">
<rect width="36" height="36" fill="white" transform="translate(13 11)"/>
</clipPath>
</defs>
</svg>
