<svg width="36" height="36" viewBox="0 0 36 36" fill="none" xmlns="http://www.w3.org/2000/svg">
<g clip-path="url(#clip0_595_3629)">
<circle cx="18" cy="18" r="18" fill="white"/>
<path d="M18.1381 10.8834L14.2056 14.1504C13.5516 14.6921 13.4256 15.6672 13.9213 16.3631C14.4453 17.1048 15.465 17.2507 16.1678 16.6881L20.2019 13.4712C20.4862 13.2461 20.8925 13.2962 21.1159 13.5878C21.3394 13.8795 21.2866 14.2962 21.0022 14.5254L20.1531 15.2005L25.8 20.5343V12.6669H25.7716L25.6131 12.5627L22.6637 10.6251C22.0422 10.2167 21.315 10 20.5756 10C19.69 10 18.8287 10.3125 18.1381 10.8834ZM19.0644 16.0673L16.9641 17.7424C15.6844 18.7675 13.8278 18.5008 12.8691 17.1507C11.9672 15.8797 12.1947 14.1046 13.385 13.117L16.765 10.3125C16.2937 10.1083 15.7859 10.0042 15.27 10.0042C14.5062 10 13.7628 10.2334 13.125 10.6667L10.2 12.6669V22.0012H11.3456L15.0588 25.4765C15.855 26.2224 17.0859 26.1641 17.8131 25.3473C18.0366 25.0931 18.1869 24.7973 18.2641 24.4889L18.9547 25.139C19.7469 25.8849 20.9819 25.8307 21.7091 25.0181C21.8919 24.8139 22.0259 24.5764 22.1112 24.3305C22.8994 24.8723 23.9719 24.7598 24.6341 24.018C25.3612 23.2054 25.3084 21.9386 24.5162 21.1927L19.0644 16.0673ZM5.65 12.6669C5.2925 12.6669 5 12.967 5 13.3337V22.0012C5 22.7387 5.58094 23.3346 6.3 23.3346H7.6C8.31906 23.3346 8.9 22.7387 8.9 22.0012V12.6669H5.65ZM6.95 20.6677C7.12239 20.6677 7.28772 20.7379 7.40962 20.863C7.53152 20.988 7.6 21.1576 7.6 21.3344C7.6 21.5113 7.53152 21.6808 7.40962 21.8059C7.28772 21.9309 7.12239 22.0012 6.95 22.0012C6.77761 22.0012 6.61228 21.9309 6.49038 21.8059C6.36848 21.6808 6.3 21.5113 6.3 21.3344C6.3 21.1576 6.36848 20.988 6.49038 20.863C6.61228 20.7379 6.77761 20.6677 6.95 20.6677ZM27.1 12.6669V22.0012C27.1 22.7387 27.6809 23.3346 28.4 23.3346H29.7C30.4191 23.3346 31 22.7387 31 22.0012V13.3337C31 12.967 30.7075 12.6669 30.35 12.6669H27.1ZM28.4 21.3344C28.4 21.1576 28.4685 20.988 28.5904 20.863C28.7123 20.7379 28.8776 20.6677 29.05 20.6677C29.2224 20.6677 29.3877 20.7379 29.5096 20.863C29.6315 20.988 29.7 21.1576 29.7 21.3344C29.7 21.5113 29.6315 21.6808 29.5096 21.8059C29.3877 21.9309 29.2224 22.0012 29.05 22.0012C28.8776 22.0012 28.7123 21.9309 28.5904 21.8059C28.4685 21.6808 28.4 21.5113 28.4 21.3344Z" fill="#9E7DEB"/>
</g>
<defs>
<clipPath id="clip0_595_3629">
<rect width="36" height="36" fill="white"/>
</clipPath>
</defs>
</svg>
