<svg width="36" height="39" viewBox="0 0 36 39" fill="none" xmlns="http://www.w3.org/2000/svg">
<g filter="url(#filter0_d_307_2845)">
<rect width="36" height="36" rx="18" fill="#E8F7FF" shape-rendering="crispEdges"/>
<rect x="1.5" y="1.5" width="33" height="33" rx="16.5" stroke="white" stroke-width="3" shape-rendering="crispEdges"/>
<mask id="path-3-inside-1_307_2845" fill="white">
<path fill-rule="evenodd" clip-rule="evenodd" d="M26.8334 9.42961C25.5778 8.12109 23.4992 8.07816 22.1907 9.33374L18.0003 13.3546L13.8099 9.33374C12.5014 8.07816 10.4228 8.12109 9.16718 9.42961C7.91161 10.7381 7.95454 12.8167 9.26306 14.0723L13.2577 17.9053L9.06584 21.9275C7.75732 23.1831 7.71439 25.2617 8.96997 26.5702C10.2255 27.8787 12.3042 27.9216 13.6127 26.6661L18.0003 22.456L22.3879 26.6661C23.6964 27.9216 25.7751 27.8787 27.0306 26.5702C28.2862 25.2617 28.2433 23.1831 26.9348 21.9275L22.7429 17.9053L26.7375 14.0723C28.0461 12.8167 28.089 10.7381 26.8334 9.42961Z"/>
</mask>
<path fill-rule="evenodd" clip-rule="evenodd" d="M26.8334 9.42961C25.5778 8.12109 23.4992 8.07816 22.1907 9.33374L18.0003 13.3546L13.8099 9.33374C12.5014 8.07816 10.4228 8.12109 9.16718 9.42961C7.91161 10.7381 7.95454 12.8167 9.26306 14.0723L13.2577 17.9053L9.06584 21.9275C7.75732 23.1831 7.71439 25.2617 8.96997 26.5702C10.2255 27.8787 12.3042 27.9216 13.6127 26.6661L18.0003 22.456L22.3879 26.6661C23.6964 27.9216 25.7751 27.8787 27.0306 26.5702C28.2862 25.2617 28.2433 23.1831 26.9348 21.9275L22.7429 17.9053L26.7375 14.0723C28.0461 12.8167 28.089 10.7381 26.8334 9.42961Z" fill="#FF0C81"/>
<path d="M22.1907 9.33374L22.8831 10.0553L22.1907 9.33374ZM26.8334 9.42961L26.1119 10.122L26.8334 9.42961ZM18.0003 13.3546L17.3079 14.0761L18.0003 14.7405L18.6927 14.0761L18.0003 13.3546ZM13.8099 9.33374L13.1175 10.0553L13.8099 9.33374ZM9.16718 9.42961L9.88874 10.122V10.122L9.16718 9.42961ZM9.26306 14.0723L9.95542 13.3508H9.95542L9.26306 14.0723ZM13.2577 17.9053L13.95 18.6268L14.702 17.9053L13.95 17.1837L13.2577 17.9053ZM9.06584 21.9275L8.37349 21.2059H8.37349L9.06584 21.9275ZM8.96997 26.5702L9.69152 25.8778H9.69152L8.96997 26.5702ZM13.6127 26.6661L12.9203 25.9445H12.9203L13.6127 26.6661ZM18.0003 22.456L18.6927 21.7344L18.0003 21.0701L17.3079 21.7344L18.0003 22.456ZM22.3879 26.6661L23.0803 25.9445L22.3879 26.6661ZM27.0306 26.5702L26.3091 25.8778L26.3091 25.8778L27.0306 26.5702ZM26.9348 21.9275L26.2424 22.649L26.9348 21.9275ZM22.7429 17.9053L22.0506 17.1837L21.2986 17.9053L22.0506 18.6268L22.7429 17.9053ZM26.7375 14.0723L26.0452 13.3508L26.7375 14.0723ZM22.8831 10.0553C23.7931 9.1821 25.2387 9.21195 26.1119 10.122L27.555 8.73725C25.917 7.03022 23.2054 6.97423 21.4983 8.61218L22.8831 10.0553ZM18.6927 14.0761L22.8831 10.0553L21.4983 8.61218L17.3079 12.633L18.6927 14.0761ZM18.6927 12.633L14.5023 8.61218L13.1175 10.0553L17.3079 14.0761L18.6927 12.633ZM14.5023 8.61218C12.7952 6.97423 10.0836 7.03023 8.44563 8.73725L9.88874 10.122C10.7619 9.21195 12.2075 9.1821 13.1175 10.0553L14.5023 8.61218ZM8.44563 8.73725C6.80768 10.4443 6.86367 13.1559 8.5707 14.7939L9.95542 13.3508C9.0454 12.4776 9.01554 11.032 9.88874 10.122L8.44563 8.73725ZM8.5707 14.7939L12.5653 18.6268L13.95 17.1837L9.95542 13.3508L8.5707 14.7939ZM9.7582 22.649L13.95 18.6268L12.5653 17.1837L8.37349 21.2059L9.7582 22.649ZM9.69152 25.8778C8.81833 24.9678 8.84818 23.5222 9.7582 22.649L8.37349 21.2059C6.66646 22.8439 6.61046 25.5555 8.24841 27.2626L9.69152 25.8778ZM12.9203 25.9445C12.0103 26.8177 10.5647 26.7879 9.69152 25.8778L8.24841 27.2626C9.88637 28.9696 12.598 29.0256 14.305 27.3876L12.9203 25.9445ZM17.3079 21.7344L12.9203 25.9445L14.305 27.3876L18.6927 23.1776L17.3079 21.7344ZM17.3079 23.1776L21.6956 27.3876L23.0803 25.9445L18.6927 21.7344L17.3079 23.1776ZM21.6956 27.3876C23.4026 29.0256 26.1142 28.9696 27.7522 27.2626L26.3091 25.8778C25.4359 26.7879 23.9903 26.8177 23.0803 25.9445L21.6956 27.3876ZM27.7522 27.2626C29.3901 25.5555 29.3341 22.8439 27.6271 21.2059L26.2424 22.649C27.1524 23.5222 27.1823 24.9678 26.3091 25.8778L27.7522 27.2626ZM27.6271 21.2059L23.4353 17.1837L22.0506 18.6268L26.2424 22.649L27.6271 21.2059ZM26.0452 13.3508L22.0506 17.1837L23.4353 18.6268L27.4299 14.7939L26.0452 13.3508ZM26.1119 10.122C26.9851 11.032 26.9552 12.4776 26.0452 13.3508L27.4299 14.7939C29.1369 13.1559 29.1929 10.4443 27.555 8.73725L26.1119 10.122Z" fill="#E8F7FF" mask="url(#path-3-inside-1_307_2845)"/>
</g>
<defs>
<filter id="filter0_d_307_2845" x="0" y="0" width="36" height="39" filterUnits="userSpaceOnUse" color-interpolation-filters="sRGB">
<feFlood flood-opacity="0" result="BackgroundImageFix"/>
<feColorMatrix in="SourceAlpha" type="matrix" values="0 0 0 0 0 0 0 0 0 0 0 0 0 0 0 0 0 0 127 0" result="hardAlpha"/>
<feOffset dy="3"/>
<feComposite in2="hardAlpha" operator="out"/>
<feColorMatrix type="matrix" values="0 0 0 0 0.337255 0 0 0 0 0.643137 0 0 0 0 1 0 0 0 1 0"/>
<feBlend mode="normal" in2="BackgroundImageFix" result="effect1_dropShadow_307_2845"/>
<feBlend mode="normal" in="SourceGraphic" in2="effect1_dropShadow_307_2845" result="shape"/>
</filter>
</defs>
</svg>
