<svg width="36" height="36" viewBox="0 0 36 36" fill="none" xmlns="http://www.w3.org/2000/svg">
<rect width="36" height="36" rx="18" fill="white"/>
<path d="M7.01582 8.19943C6.60958 7.87913 6.01974 7.95335 5.69943 8.35959C5.37913 8.76583 5.45335 9.35566 5.85959 9.67596L28.9842 27.8006C29.3904 28.1209 29.9803 28.0467 30.3006 27.6404C30.6209 27.2342 30.5467 26.6443 30.1404 26.324L24.8671 22.1913C24.8241 21.7499 24.621 21.3202 24.2694 20.9921L19.0273 16.1875L18.1133 16.8985L17.0977 16.1055L20.1132 13.7579C20.3867 13.547 20.7773 13.5938 20.9921 13.8673C21.207 14.1407 21.1562 14.5313 20.8828 14.7462L20.0664 15.379L25.4999 20.3749V13.0001H25.4725L25.3202 12.9025L22.4843 11.0861C21.8867 10.7033 21.1874 10.5002 20.4765 10.5002C19.625 10.5002 18.7969 10.7931 18.1328 11.3283L14.629 14.1641L13.6212 13.3712L16.8164 10.7853C16.3633 10.5939 15.875 10.4963 15.379 10.4963C14.6407 10.5002 13.9259 10.7189 13.3126 11.1252L11.9259 12.0509L7.01582 8.19943ZM21.6562 24.4803L10.5001 15.6876V21.7499H11.6017L15.1719 25.0077C15.9375 25.7069 17.1211 25.6522 17.8203 24.8866C18.0352 24.6483 18.1797 24.371 18.2539 24.0819L18.918 24.6913C19.6797 25.3905 20.8671 25.3397 21.5663 24.578C21.5976 24.5467 21.6249 24.5116 21.6523 24.4764L21.6562 24.4803ZM9.25015 14.7032L7.08613 13.0001H6.12521C5.78146 13.0001 5.50022 13.2814 5.50022 13.6251V21.7499C5.50022 22.4413 6.0588 22.9999 6.7502 22.9999H8.00018C8.69157 22.9999 9.25015 22.4413 9.25015 21.7499V14.7032ZM7.37519 20.4999C7.54094 20.4999 7.69991 20.5658 7.81712 20.683C7.93433 20.8002 8.00018 20.9592 8.00018 21.1249C8.00018 21.2907 7.93433 21.4497 7.81712 21.5669C7.69991 21.6841 7.54094 21.7499 7.37519 21.7499C7.20943 21.7499 7.05046 21.6841 6.93325 21.5669C6.81604 21.4497 6.7502 21.2907 6.7502 21.1249C6.7502 20.9592 6.81604 20.8002 6.93325 20.683C7.05046 20.5658 7.20943 20.4999 7.37519 20.4999ZM26.7498 13.0001V21.7499C26.7498 22.4413 27.3084 22.9999 27.9998 22.9999H29.2498C29.9412 22.9999 30.4998 22.4413 30.4998 21.7499V13.6251C30.4998 13.2814 30.2185 13.0001 29.8748 13.0001H26.7498ZM27.9998 21.1249C27.9998 20.9592 28.0657 20.8002 28.1829 20.683C28.3001 20.5658 28.4591 20.4999 28.6248 20.4999C28.7906 20.4999 28.9495 20.5658 29.0667 20.683C29.184 20.8002 29.2498 20.9592 29.2498 21.1249C29.2498 21.2907 29.184 21.4497 29.0667 21.5669C28.9495 21.6841 28.7906 21.7499 28.6248 21.7499C28.4591 21.7499 28.3001 21.6841 28.1829 21.5669C28.0657 21.4497 27.9998 21.2907 27.9998 21.1249Z" fill="#9E7DEB"/>
</svg>
