<svg width="36" height="36" viewBox="0 0 36 36" fill="none" xmlns="http://www.w3.org/2000/svg">
<g clip-path="url(#clip0_361_5011)">
<path d="M4.5 16.3123C4.5 17.8663 5.76 19.1248 7.3125 19.1248H8.4375C9.9915 19.1248 11.25 17.8648 11.25 16.3123V6.18727C11.25 4.63477 9.99 3.37477 8.4375 3.37477H7.3125C6.56658 3.37477 5.85121 3.67109 5.32376 4.19854C4.79632 4.72598 4.5 5.44135 4.5 6.18727V16.3123Z" fill="#0640CD"/>
<path d="M14.75 29.8125C14.75 31.365 16.01 32.625 17.5625 32.625H18.6875C20.24 32.625 21.5 31.3665 21.5 29.8125V6.1875C21.5 4.635 20.24 3.375 18.6875 3.375H17.5625C16.01 3.375 14.75 4.635 14.75 6.1875V29.8125Z" fill="#0640CD"/>
<path d="M27.8125 25.8748C26.26 25.8748 25 24.6163 25 23.0623V6.18727C25 5.44135 25.2963 4.72598 25.8238 4.19854C26.3512 3.67109 27.0666 3.37477 27.8125 3.37477H28.9375C30.49 3.37477 31.75 4.63477 31.75 6.18727V23.0623C31.75 24.6148 30.4915 25.8748 28.9375 25.8748H27.8125Z" fill="#0640CD"/>
<path d="M4.5 16.3123C4.5 17.8663 5.76 19.1248 7.3125 19.1248H8.4375C9.9915 19.1248 11.25 17.8648 11.25 16.3123V6.18727C11.25 4.63477 9.99 3.37477 8.4375 3.37477H7.3125C6.56658 3.37477 5.85121 3.67109 5.32376 4.19854C4.79632 4.72598 4.5 5.44135 4.5 6.18727V16.3123Z" stroke="#0640CD"/>
<path d="M14.75 29.8125C14.75 31.365 16.01 32.625 17.5625 32.625H18.6875C20.24 32.625 21.5 31.3665 21.5 29.8125V6.1875C21.5 4.635 20.24 3.375 18.6875 3.375H17.5625C16.01 3.375 14.75 4.635 14.75 6.1875V29.8125Z" stroke="#0640CD"/>
<path d="M27.8125 25.8748C26.26 25.8748 25 24.6163 25 23.0623V6.18727C25 5.44135 25.2963 4.72598 25.8238 4.19854C26.3512 3.67109 27.0666 3.37477 27.8125 3.37477H28.9375C30.49 3.37477 31.75 4.63477 31.75 6.18727V23.0623C31.75 24.6148 30.4915 25.8748 28.9375 25.8748H27.8125Z" stroke="#0640CD"/>
</g>
<defs>
<clipPath id="clip0_361_5011">
<rect width="36" height="36" fill="white"/>
</clipPath>
</defs>
</svg>
