<svg width="36" height="36" viewBox="0 0 36 36" fill="none" xmlns="http://www.w3.org/2000/svg">
<rect width="36" height="36" rx="18" fill="white"/>
<path d="M18.0981 7.00017C18.0473 7.00054 17.9964 7.00138 17.9454 7.00274C16.1504 7.05143 14.2245 7.74979 12.2944 9.36026L12.0192 9.58991L11.7575 9.34436C11.1803 8.80282 10.8319 8.05189 10.5864 7.29965C10.1767 9.0293 9.91847 11.1062 10.1649 12.6562C10.9897 12.6986 12.238 12.5543 13.5295 12.2905C14.3448 12.1239 15.1752 11.9104 15.952 11.6791C15.3394 11.5429 14.7698 11.3572 14.2107 11.114L13.4762 10.7944L14.1567 10.3675C16.2735 9.03954 17.8529 8.46457 19.6457 8.70465C21.157 8.90703 22.812 9.68065 25.0813 10.9156C23.923 9.21713 22.2398 7.88772 20.3003 7.31443C19.5971 7.10662 18.8598 6.99507 18.0981 7.00017ZM22.1087 11.4519C19.9782 11.4519 19.9783 11.4519 19.9783 13.6346V22.3686C19.9783 22.8174 19.9786 23.1726 19.9972 23.4557C20.7605 23.2342 21.5319 23.0435 22.3097 22.884C23.435 22.6541 24.5178 22.4993 25.4103 22.4906C25.7078 22.4877 25.9842 22.5011 26.2339 22.5332L26.5219 22.5703L26.5839 22.8609C26.6964 23.3878 26.7516 23.9576 26.7626 24.5475C28.4989 24.5386 28.5 24.4044 28.5 22.3656V13.6345C28.5 11.4519 28.5 11.4519 26.3696 11.4519C26.4323 11.5698 26.4929 11.6889 26.5512 11.8092L27.1275 13.0036L25.986 12.3652C25.3887 12.0312 24.8372 11.7276 24.3219 11.4519H22.1087ZM9.23738 11.4526C7.50114 11.4615 7.5 11.5957 7.5 13.6346V22.3686C7.5 24.5482 7.5 24.5482 9.6304 24.5482C9.56767 24.4302 9.50712 24.3111 9.4488 24.1908L8.87249 22.9964L10.014 23.6348C10.6113 23.9689 11.1628 24.2724 11.6781 24.5482H13.8913C16.0218 24.5482 16.0217 24.5482 16.0217 22.3655V13.6346C16.0217 13.1843 16.0214 12.8282 16.0027 12.5446C15.2395 12.766 14.4681 12.9566 13.6903 13.1161C12.1899 13.4227 10.765 13.5956 9.76613 13.4668L9.47806 13.4297L9.41607 13.1391C9.30358 12.6123 9.24839 12.0425 9.23738 11.4526ZM25.4265 23.3365C24.6256 23.3482 23.5627 23.4864 22.4705 23.7096C21.6552 23.8761 20.8248 24.0896 20.048 24.321C20.6606 24.4571 21.2302 24.6428 21.7893 24.8861L22.5238 25.2056L21.8433 25.6325C19.7265 26.9605 18.1471 27.5355 16.3543 27.2954C14.843 27.0931 13.188 26.3194 10.9187 25.0844C12.077 26.7829 13.7602 28.1124 15.6997 28.6856C18.0998 29.395 20.8982 28.9823 23.7056 26.6398L23.9808 26.4101L24.2425 26.6557C24.8197 27.1973 25.1681 27.9481 25.4136 28.7004C25.8233 26.9707 26.0815 24.8938 25.8351 23.3439C25.7078 23.3373 25.5726 23.3343 25.4265 23.3365H25.4265Z" fill="#9E7DEB"/>
</svg>
