<svg width="32" height="32" viewBox="0 0 32 32" fill="none" xmlns="http://www.w3.org/2000/svg">
<g clip-path="url(#clip0_2620_4606)">
<path d="M13.8895 7.78774C12.7824 7.34633 12 6.26453 12 5C12 3.34315 13.3431 2 15 2C16.6569 2 18 3.34315 18 5C18 5.76835 17.7111 6.46924 17.2361 7H20.4034C21.9399 7 23.3406 7.8801 24.0073 9.26441L25.8357 13.0611C26.315 14.0563 25.8968 15.2515 24.9016 15.7308C23.9064 16.2101 22.7111 15.7919 22.2319 14.7967L20.4034 11H19.6646L20.4844 15.7305L20.4823 15.7316C20.5434 16.1856 20.4466 16.6505 20.207 17.0431L20.2113 17.0566L20.1877 17.0742C20.0487 17.2927 19.8647 17.4877 19.6384 17.6444L14 21.5479V28C14 29.1046 13.1046 30 12 30C10.8954 30 9.99999 29.1046 9.99999 28V20.5C9.99999 19.8437 10.322 19.2292 10.8616 18.8556L14.8914 16.0657L14.1823 13.2294L13.9159 13.5039C13.7104 13.7157 13.4605 13.8794 13.1843 13.9832L8.58707 15.7109C7.5531 16.0995 6.39991 15.5763 6.01133 14.5423C5.62274 13.5084 6.14593 12.3552 7.17989 11.9666L11.3576 10.3965L13.8895 7.78774Z" fill="#017900"/>
<path d="M17.4547 21.5923C17.4739 21.58 17.4928 21.5669 17.5114 21.5531L20.8514 19.0725L21.6039 21.4427C21.7032 21.7552 21.8777 22.0386 22.1123 22.2678L26.1393 26.2035C26.9293 26.9755 26.9438 28.2418 26.1718 29.0317C25.3998 29.8217 24.1335 29.8362 23.3436 29.0642L19.3165 25.1285C18.6129 24.4409 18.0892 23.5908 17.7915 22.6532L17.4547 21.5923Z" fill="#017900"/>
</g>
<defs>
<clipPath id="clip0_2620_4606">
<rect width="32" height="32" fill="white" transform="matrix(-1 0 0 1 32 0)"/>
</clipPath>
</defs>
</svg>
